<?xml version="1.0" encoding="utf-8"?>
<!-- Generator: Adobe Illustrator 17.1.0, SVG Export Plug-In . SVG Version: 6.00 Build 0)  -->
<!DOCTYPE svg PUBLIC "-//W3C//DTD SVG 1.1//EN" "http://www.w3.org/Graphics/SVG/1.1/DTD/svg11.dtd">
<svg version="1.1" id="Layer_1" xmlns="http://www.w3.org/2000/svg" xmlns:xlink="http://www.w3.org/1999/xlink" x="0px" y="0px"
	 viewBox="0 0 192 192" enable-background="new 0 0 192 192" xml:space="preserve">
<path fill="#33B5E5" d="M164.5,96c-0.8,4-4.3,7-8.5,7.2c-1.3,0.1-2.4,1-2.7,2.4c-0.3,1.3,0.4,2.7,1.6,3.3c3.8,1.8,5.9,5.9,5.1,10
	l-0.7,3.8c-1,5.1-6.4,8.2-11.2,7c-1.3-0.3-2.7-0.6-4.1-0.9c-2-0.4-4-0.8-6-1.2c-2.6-0.5-5.3-1.1-7.9-1.6c-3.1-0.6-6.3-1.3-9.4-1.9
	c-3.5-0.7-7-1.4-10.5-2.2c-3.7-0.8-7.5-1.5-11.2-2.3c-3.8-0.8-7.7-1.6-11.5-2.4c-3.8-0.8-7.6-1.6-11.4-2.4
	c-3.6-0.7-7.3-1.5-10.9-2.2c-3.3-0.7-6.6-1.4-10-2c-2.9-0.6-5.8-1.2-8.6-1.8c-2.3-0.5-4.6-1-6.9-1.4c-1.6-0.3-3.2-0.7-4.8-1
	c-0.7-0.1-1.5-0.3-2.2-0.5c0,0-0.1,0-0.1,0c0.4,1.9,0.2,3.9-0.6,5.8c-1.8,4-6,6.1-10,5.3c-1.2-0.2-2.5,0.2-3,1.4l-1.6,3.6
	c-0.5,1.1,0,2.4,0.9,3.2c0.2,0.1,128.5,60.9,128.7,60.9c1.2,0.2,2.5-0.2,3-1.4l1.6-3.6c0.5-1.1,0-2.4-0.9-3.2
	c-3.2-2.6-4.4-7.2-2.6-11.2c1.8-4,6-6.1,10-5.3c1.2,0.2,2.5-0.2,3-1.4l1.6-3.6c0.5-1.1,0-2.4-0.9-3.2c-3.2-2.6-4.4-7.2-2.6-11.2
	c1.8-4,6-6.1,10-5.3c1.2,0.2,2.5-0.2,3-1.4l1.6-3.6c0.5-1.1,0-2.4-0.9-3.2c-3.2-2.6-4.4-7.2-2.6-11.2c1.8-4,6-6.1,10-5.3
	c1.2,0.2,2.5-0.2,3-1.4l1.8-3.9c0.5-1.1,0-2.5-1.1-3l-19.2-9.1L164.5,96z"/>
<path fill="#FFBB33" d="M11.7,94.8c0.2,0.1,138.7,28.6,138.9,28.6c1.2-0.1,2.4-0.8,2.6-2l0.7-3.8c0.2-1.2-0.6-2.4-1.7-2.9
	c-3.7-1.8-5.9-6-5.1-10.3c0.8-4.3,4.4-7.3,8.5-7.5c1.2-0.1,2.4-0.8,2.6-2l0.6-2.8l0.2-1c0.2-1.2-0.6-2.4-1.7-2.9
	c-3.7-1.8-5.9-6-5.1-10.3c0.8-4.3,4.4-7.3,8.5-7.5c1.2-0.1,2.4-0.8,2.6-2l0.7-3.8c0.2-1.2-0.6-2.4-1.7-2.9c-3.7-1.8-5.9-6-5.1-10.3
	c0.8-4.3,4.4-7.3,8.5-7.5c1.2-0.1,2.4-0.8,2.6-2l0.8-4.3c0.2-1.2-0.5-2.4-1.7-2.7c0,0-139.2-28.7-139.3-28.7c-1,0-1.9,0.7-2.2,1.8
	L25.6,12c-0.2,1.2,0.6,2.4,1.7,2.9c3.7,1.8,5.9,6,5.1,10.3c-0.8,4.3-4.4,7.3-8.5,7.5c-1.2,0.1-2.4,0.8-2.6,2l-0.7,3.8
	c-0.2,1.2,0.6,2.4,1.7,2.9c3.7,1.8,5.9,6,5.1,10.3c-0.8,4.3-4.4,7.3-8.5,7.5c-1.2,0.1-2.4,0.8-2.6,2l-0.7,3.8
	c-0.2,1.2,0.6,2.4,1.7,2.9c3.7,1.8,5.9,6,5.1,10.3c-0.8,4.3-4.4,7.3-8.5,7.5c-1.2,0.1-2.4,0.8-2.6,2L10,91.9
	C9.8,93.1,10.6,94.2,11.7,94.8z M130.3,47.9c0.5-2.5,2.8-4.1,5.2-3.6c2.4,0.5,4,2.9,3.5,5.4l-5.9,30l-3.6,18.5
	c-0.4,2.2-2.3,3.7-4.4,3.7c-0.3,0-0.6,0-0.9-0.1c-2.4-0.5-4-2.9-3.5-5.4l4-20.6L130.3,47.9z M50.1,31.4c0.5-2.5,2.8-4.1,5.2-3.6
	c2.4,0.5,4,2.9,3.5,5.4l-2,10.4l-2.3,11.8l-1.9,9.5l-3.3,16.9c-0.4,2.2-2.3,3.7-4.4,3.7c-0.3,0-0.6,0-0.9-0.1
	c-0.1,0-0.2-0.1-0.4-0.1c-2.2-0.7-3.6-2.9-3.1-5.3l0.7-3.4l1.7-8.8L50.1,31.4z"/>
</svg>
