<?xml version="1.0" encoding="utf-8"?>
<!-- Generator: Adobe Illustrator 17.1.0, SVG Export Plug-In . SVG Version: 6.00 Build 0)  -->
<!DOCTYPE svg PUBLIC "-//W3C//DTD SVG 1.1//EN" "http://www.w3.org/Graphics/SVG/1.1/DTD/svg11.dtd">
<svg version="1.1" id="Layer_1" xmlns="http://www.w3.org/2000/svg" xmlns:xlink="http://www.w3.org/1999/xlink" x="0px" y="0px"
	 viewBox="0 0 192 192" enable-background="new 0 0 192 192" xml:space="preserve">
<path fill="#33B5E5" d="M16.3,146c-3.5-6.9-7.8-13.9-9.3-21.5c-0.5-2.6,2.3-4.5,4.6-3.1c3.3,2.1,6.9,3.6,10.7,4.6L16.3,146z"/>
<path fill="#33B5E5" d="M182.1,66.3c-2.2-4.3-9.8-18.8-11.7-21.5c-0.9-1.2-2-2.7-3.6-3.1c-1.4-0.3-2.8,0.5-3.3,1.8
	c-0.3,0.7-0.3,1.4-0.4,2.1c-0.2,2.2-0.6,4.3-1.2,6.4L94.2,33.1c-0.4,3.3-1.4,6.6-2.9,9.6l66.6,18.6c-3.5,5.9-8.7,10.9-15.3,14.2
	l-43,21.8l13.7,46.3l52.3-26.4C184.1,107.7,191.6,85,182.1,66.3z"/>
<path fill="#33B5E5" d="M52.2,121.3l-13.8,46.5c9.6,3.6,20.6,3.3,30.4-1.7l19.5-9.8L74.7,110L52.2,121.3z"/>
<path fill="#FFBB33" d="M78.3,48.2c2.7-1.9,5-4.4,6.7-7.3c2-3.5,3.1-7.5,3.1-11.5c0-12.7-10.3-23-23-23c-12.7,0-23,10.3-23,23
	c0,7.8,3.9,14.6,9.7,18.8L14.1,175.9c-1.2,3.9,1.1,8,5,9.1c0.7,0.2,1.4,0.3,2.1,0.3c3.2,0,6.1-2.1,7-5.3l37-124.8l37,124.8
	c1,3.2,3.9,5.3,7,5.3c0.7,0,1.4-0.1,2.1-0.3c3.9-1.2,6.1-5.2,5-9.1L78.3,48.2z"/>
</svg>
