<?xml version="1.0" encoding="utf-8"?>
<!-- Generator: Adobe Illustrator 17.1.0, SVG Export Plug-In . SVG Version: 6.00 Build 0)  -->
<!DOCTYPE svg PUBLIC "-//W3C//DTD SVG 1.1//EN" "http://www.w3.org/Graphics/SVG/1.1/DTD/svg11.dtd">
<svg version="1.1" id="Layer_1" xmlns="http://www.w3.org/2000/svg" xmlns:xlink="http://www.w3.org/1999/xlink" x="0px" y="0px"
	 viewBox="0 0 192 192" enable-background="new 0 0 192 192" xml:space="preserve">
<path fill="#33B5E5" d="M41.5,162.8c16.4,11.4,35.1,17.3,54.5,17.5c19.4-0.1,38.2-6.1,54.5-17.5c14.5-10.2,26.5-24.1,34.7-40.5
	c1.3-2.7,1-5.9-0.8-8.3c0,0,0,0,0,0c-8-10.1-18.5-17.5-29.6-22.9c-0.9-0.4-10.8-4.5-10.8-4.6c1.1-4.2,2.1-8.4,2.4-12.7
	c0.1-1.1,1-1.8,2-1.6c2.7,0.7,5.9,0.3,8.4-0.4c4.6-1.2,9.1-4.7,10.9-9.5c0.8-2.3,0.6-4.5,0.6-7c0,0,4.2-1.6,4.6-1.9
	c5.6-3.2,8.6-10,6.8-16.7c-0.9-3.5-3.1-6.5-5.9-8.4c-2.7-1.8-5.3-2.1-8.1-2.3c-1.5-0.1-2.8-1.3-3.1-2.9
	c-1.6-9.3-12.4-14.3-20.5-12.5c-6.4,1.4-11.6,6.6-12.8,13.3c-0.3,1.5-1.9,2.1-3,1.2c-1.4-1.1-2.8-2.3-4.4-3.3
	c-2.6-1.7-5.3-3.1-8.1-4.2c-5.7-2.3-11.8-3.5-17.9-3.5c0,0,0,0,0,0c0,0,0,0,0,0c-6.1,0-12.2,1.2-17.9,3.5c-2.8,1.1-5.5,2.5-8.1,4.2
	c-1.5,1-2.9,2.1-4.4,3.3c-1.1,0.9-2.7,0.2-3-1.2c-1.3-6.7-6.4-11.9-12.8-13.3c-8.1-1.8-18.9,3.2-20.5,12.5c-0.3,1.7-1.7,2.8-3.2,2.8
	c-1.3,0-2.6,0-4,0.5c-5.1,1.7-9.4,6.4-10.2,12.3c-0.8,6.2,2.2,12,7.3,14.8c0.4,0.2,4.6,1.9,4.6,1.9c0,2.4-0.2,4.7,0.6,7
	c1.8,4.9,6.3,8.3,10.9,9.5c2.6,0.7,5.7,1.1,8.4,0.4c1-0.2,1.9,0.5,2,1.6c0.3,4.3,1.3,8.5,2.4,12.7c0,0-9.9,4.2-10.8,4.6
	C26.1,96.4,15.6,103.9,7.6,114c0,0,0,0,0,0c-1.8,2.3-2.1,5.6-0.8,8.3C15,138.7,27,152.6,41.5,162.8z M112.6,36.6
	c3.6,0,6.5,3.1,6.5,7s-2.9,7-6.5,7s-6.5-3.1-6.5-7S109,36.6,112.6,36.6z M96,51.2c7.7,0,13.8,6.7,13.8,15c0,8.3-6.2,15-13.8,15
	c-7.6,0-13.8-6.7-13.8-15S88.3,51.2,96,51.2z M79.4,36.6c3.6,0,6.5,3.1,6.5,7s-2.9,7-6.5,7c-3.6,0-6.5-3.1-6.5-7
	S75.8,36.6,79.4,36.6z M67,65.4c3.1-0.6,6,1.7,6.5,5.1c0.8,5.7,3.6,11,7.7,14.8c4.1,3.8,9.4,6,14.8,6c5.4,0,10.7-2.1,14.8-5.9
	c4.1-3.8,6.8-9,7.7-14.7c0.5-3.4,3.4-5.6,6.5-5.1c3.1,0.6,5.2,3.7,4.7,7.1c-1.3,8.6-5.4,16.4-11.5,22.1c-6.2,5.7-14.1,8.9-22.2,8.9
	s-16.1-3.2-22.2-8.9C67.7,88.9,63.6,81,62.3,72.5C61.8,69.1,63.9,65.9,67,65.4z"/>
</svg>
