<?xml version="1.0" encoding="utf-8"?>
<!-- Generator: Adobe Illustrator 17.1.0, SVG Export Plug-In . SVG Version: 6.00 Build 0)  -->
<!DOCTYPE svg PUBLIC "-//W3C//DTD SVG 1.1//EN" "http://www.w3.org/Graphics/SVG/1.1/DTD/svg11.dtd">
<svg version="1.1" id="Layer_1" xmlns="http://www.w3.org/2000/svg" xmlns:xlink="http://www.w3.org/1999/xlink" x="0px" y="0px"
	 viewBox="0 0 192 192" enable-background="new 0 0 192 192" xml:space="preserve">
<path fill="#00C851" d="M164.5,162H46.8c-6.3,0-11.4-4.6-11.4-10.3V23c0-5.7,5.1-10.3,11.4-10.3h117.7c6.3,0,11.4,4.6,11.4,10.3
	v128.7C175.9,157.4,170.8,162,164.5,162z"/>
<path fill="#FFBB33" d="M147.7,179.5H30c-6.3,0-11.4-4.6-11.4-10.3V40.4c0-5.7,5.1-10.3,11.4-10.3h117.7c6.3,0,11.4,4.6,11.4,10.3
	v128.7C159.1,174.8,154,179.5,147.7,179.5z"/>
<rect x="38.5" y="53.5" fill="#FFFFFF" stroke="#FFFFFF" stroke-miterlimit="10" width="24" height="103"/>
<rect x="29.5" y="138.5" fill="#FFFFFF" stroke="#FFFFFF" stroke-miterlimit="10" width="42" height="18"/>
<rect x="111.5" y="53.5" fill="#FFFFFF" stroke="#FFFFFF" stroke-miterlimit="10" width="23" height="103"/>
<polygon fill="#FFFFFF" stroke="#FFFFFF" stroke-miterlimit="10" points="63.2,53.7 129.7,141.8 111.1,155.8 44.5,67.7 "/>
<rect x="102.5" y="53.5" fill="#FFFFFF" stroke="#FFFFFF" stroke-miterlimit="10" width="42" height="18"/>
</svg>
