<?xml version="1.0" encoding="utf-8"?>
<!-- Generator: Adobe Illustrator 17.1.0, SVG Export Plug-In . SVG Version: 6.00 Build 0)  -->
<!DOCTYPE svg PUBLIC "-//W3C//DTD SVG 1.1//EN" "http://www.w3.org/Graphics/SVG/1.1/DTD/svg11.dtd">
<svg version="1.1" id="Layer_1" xmlns="http://www.w3.org/2000/svg" xmlns:xlink="http://www.w3.org/1999/xlink" x="0px" y="0px"
	 viewBox="0 0 192 192" enable-background="new 0 0 192 192" xml:space="preserve">
<path fill="none" stroke="#58595B" stroke-width="8" stroke-miterlimit="10" d="M96.3,136.2c-3.2,0-6.4-0.2-9.5-0.7l-5.7,10.7
	c4.9,1,10,1.5,15.1,1.5c5.2,0,10.2-0.5,15.1-1.5l-5.7-10.7C102.7,136,99.5,136.2,96.3,136.2z"/>
<path fill="none" stroke="#58595B" stroke-width="8" stroke-miterlimit="10" d="M168.6,61.4h-4.3c-0.7-2.4-1.6-4.7-2.7-7
	c-0.7-1.7-1.6-3.3-2.5-4.9l3-2.8c2.2-2.1,2.2-5.5,0-7.5L140.9,19c-2.2-2.1-5.8-2.1-7.9,0l-2.7,2.5c-2.1-1.1-4.2-2-6.4-2.9
	c-2.3-0.9-4.6-1.7-7-2.4v-3.8c0-2.9-2.5-5.3-5.6-5.3h-30c-3.1,0-5.6,2.4-5.6,5.3v3.8c-2.4,0.7-4.7,1.5-7,2.4c-2.3,0.9-4.6,2-6.8,3.1
	L59,19c-2.2-2.1-5.8-2.1-7.9,0L29.8,39.1c-2.2,2.1-2.2,5.5,0,7.5l3.4,3.2c-0.8,1.5-1.6,3-2.2,4.5c-1.1,2.5-2.1,5-2.8,7.6h-4.7
	c-3.1,0-5.6,2.4-5.6,5.3v28.4c0,2.9,2.5,5.3,5.6,5.3h5.4c0.6,1.9,1.4,3.7,2.2,5.6c0.8,1.9,1.8,3.7,2.8,5.5l-3.9,3.7
	c-2.2,2.1-2.2,5.5,0,7.5L48.3,141l9.7-18.2l18.9-18l-35.5,67.3c-1.7,3.6-0.1,7.8,3.6,9.4c1,0.4,2.1,0.7,3.1,0.7
	c2.8,0,5.5-1.5,6.8-4.1l37.8-71.6c1.2,0.2,2.4,0.2,3.6,0.2s2.4-0.1,3.6-0.2l37.8,71.6c1.3,2.6,4,4.1,6.8,4.1c1,0,2.1-0.2,3.1-0.7
	c3.7-1.7,5.4-5.9,3.6-9.4l-35.5-67.3l18.9,18.1l9.3,17.7l18.1-17.1c2.2-2.1,2.2-5.5,0-7.5l-3.5-3.3c1.1-1.9,2.1-3.9,3-5.9
	c0.9-2,1.7-4.1,2.4-6.2h4.6c3.1,0,5.6-2.4,5.6-5.3V66.7C174.3,63.8,171.7,61.4,168.6,61.4z M121.6,77.4c-0.8-3.9-2.6-7.4-5.1-10.3
	L140.7,44c8.6,9.3,13.6,21,14.3,33.4H121.6z M37.7,77.4C38.4,65,43.4,53.4,52,44l24.2,23.1c-2.5,3-4.3,6.5-5.1,10.3H37.7z M135.4,39
	L111,62.2c-3.2-2.1-6.9-3.5-10.9-4.1V25C113.2,25.8,125.5,30.7,135.4,39z M92.6,25v33.2c-4,0.6-7.7,2-10.9,4.1L57.3,39
	C67.1,30.7,79.4,25.8,92.6,25z M52.6,117.8c-8.8-9.3-14-20.9-14.9-33.3h32.9c0.4,4.4,2,8.4,4.6,11.8L52.6,117.8z M122,84.5h32.9
	c-0.9,12.4-6.1,24-14.9,33.3l-22.5-21.5C120,92.9,121.6,88.9,122,84.5z"/>
</svg>
