<?xml version="1.0" encoding="utf-8"?>
<!-- Generator: Adobe Illustrator 17.1.0, SVG Export Plug-In . SVG Version: 6.00 Build 0)  -->
<!DOCTYPE svg PUBLIC "-//W3C//DTD SVG 1.1//EN" "http://www.w3.org/Graphics/SVG/1.1/DTD/svg11.dtd">
<svg version="1.1" id="Layer_1" xmlns="http://www.w3.org/2000/svg" xmlns:xlink="http://www.w3.org/1999/xlink" x="0px" y="0px"
	 viewBox="0 0 192 192" enable-background="new 0 0 192 192" xml:space="preserve">
<g>
	<path fill="none" stroke="#58595B" stroke-width="8" stroke-miterlimit="10" d="M161.5,96c-0.8,4-4.2,7-8.3,7.2
		c-1.3,0.1-2.4,1-2.6,2.4c-0.3,1.3,0.4,2.7,1.6,3.3c3.7,1.8,5.8,5.9,5,10l-0.7,3.8c-1,5.1-6.3,8.2-11,7c-1.3-0.3-2.6-0.6-4-0.9
		c-2-0.4-3.9-0.8-5.9-1.2c-2.6-0.5-5.2-1.1-7.7-1.6c-3.1-0.6-6.1-1.3-9.2-1.9c-3.4-0.7-6.9-1.4-10.3-2.2c-3.7-0.8-7.3-1.5-11-2.3
		c-3.8-0.8-7.5-1.6-11.3-2.4c-3.7-0.8-7.4-1.6-11.2-2.4c-3.6-0.8-7.1-1.5-10.7-2.3c-3.3-0.7-6.5-1.4-9.8-2.1
		c-2.8-0.6-5.6-1.2-8.4-1.8c-2.2-0.5-4.5-1-6.8-1.4c-1.6-0.3-3.1-0.7-4.7-1c-0.7-0.1-1.4-0.3-2.1-0.5c0,0-0.1,0-0.1,0
		c0.4,1.9,0.2,3.9-0.6,5.8c-1.8,4-5.9,6.1-9.8,5.3c-1.2-0.2-2.4,0.2-2.9,1.4l-1.6,3.6c-0.5,1.1,0,2.5,0.9,3.2
		c0.2,0.1,125.7,61,125.9,61.1c1.2,0.2,2.4-0.2,2.9-1.4l1.6-3.6c0.5-1.1,0-2.5-0.9-3.2c-3.1-2.6-4.3-7.3-2.5-11.3
		c1.8-4,5.9-6.1,9.8-5.3c1.2,0.2,2.4-0.2,2.9-1.4l1.6-3.6c0.5-1.1,0-2.5-0.9-3.2c-3.1-2.6-4.3-7.3-2.5-11.3c1.8-4,5.9-6.1,9.8-5.3
		c1.2,0.2,2.4-0.2,2.9-1.4l1.6-3.6c0.5-1.1,0-2.5-0.9-3.2c-3.1-2.6-4.3-7.3-2.5-11.3c1.8-4,5.9-6.1,9.8-5.3c1.2,0.2,2.4-0.2,2.9-1.4
		l1.7-4c0.5-1.1,0-2.5-1-3l-18.8-9.1L161.5,96z"/>
	<path fill="none" stroke="#58595B" stroke-width="8" stroke-miterlimit="10" d="M11.9,94.8c0.2,0.1,135.8,28.7,136,28.7
		c1.2-0.1,2.3-0.8,2.6-2l0.7-3.8c0.2-1.2-0.5-2.4-1.6-2.9c-3.6-1.8-5.8-6-4.9-10.3c0.8-4.3,4.4-7.3,8.4-7.5c1.2-0.1,2.3-0.8,2.6-2
		l0.5-2.8l0.2-1c0.2-1.2-0.5-2.4-1.6-2.9c-3.6-1.8-5.8-6-4.9-10.3c0.8-4.3,4.4-7.3,8.4-7.5c1.2-0.1,2.3-0.8,2.6-2l0.7-3.8
		c0.2-1.2-0.5-2.4-1.6-2.9c-3.6-1.8-5.8-6-4.9-10.3c0.8-4.3,4.4-7.3,8.4-7.5c1.2-0.1,2.3-0.8,2.6-2l0.8-4.3c0.2-1.2-0.5-2.4-1.7-2.7
		c0,0-136.2-28.7-136.3-28.7c-1,0-1.9,0.8-2.1,1.8l-0.8,4.3c-0.2,1.2,0.5,2.4,1.6,2.9c3.6,1.8,5.8,6,4.9,10.3
		c-0.8,4.3-4.4,7.3-8.4,7.5c-1.2,0.1-2.3,0.8-2.6,2l-0.7,3.8c-0.2,1.2,0.5,2.4,1.6,2.9c3.6,1.8,5.8,6,4.9,10.3
		c-0.8,4.3-4.4,7.3-8.4,7.5c-1.2,0.1-2.3,0.8-2.6,2l-0.7,3.8c-0.2,1.2,0.5,2.4,1.6,2.9c3.6,1.8,5.8,6,4.9,10.3
		c-0.8,4.3-4.4,7.3-8.4,7.5c-1.2,0.1-2.3,0.8-2.6,2l-0.7,3.8C10,93.1,10.8,94.2,11.9,94.8z M128,47.8c0.5-2.5,2.8-4.1,5.1-3.6
		c2.4,0.5,3.9,2.9,3.4,5.4l-5.7,30.1l-3.5,18.5c-0.4,2.2-2.2,3.7-4.3,3.7c-0.3,0-0.6,0-0.9-0.1c-2.4-0.5-3.9-2.9-3.4-5.4l4-20.7
		L128,47.8z M49.4,31.2c0.5-2.5,2.8-4.1,5.1-3.6c2.4,0.5,3.9,2.9,3.4,5.4l-2,10.4l-2.2,11.8l-1.8,9.5l-3.2,17
		c-0.4,2.2-2.2,3.7-4.3,3.7c-0.3,0-0.6,0-0.9-0.1c-0.1,0-0.2-0.1-0.3-0.1c-2.2-0.7-3.5-3-3-5.3l0.6-3.4l1.7-8.9L49.4,31.2z"/>
</g>
</svg>
