<?xml version="1.0" encoding="utf-8"?>
<!-- Generator: Adobe Illustrator 17.1.0, SVG Export Plug-In . SVG Version: 6.00 Build 0)  -->
<!DOCTYPE svg PUBLIC "-//W3C//DTD SVG 1.1//EN" "http://www.w3.org/Graphics/SVG/1.1/DTD/svg11.dtd">
<svg version="1.1" id="Layer_1" xmlns="http://www.w3.org/2000/svg" xmlns:xlink="http://www.w3.org/1999/xlink" x="0px" y="0px"
	 viewBox="0 0 192 192" enable-background="new 0 0 192 192" xml:space="preserve">
<g>
	<path fill="none" stroke="#4D4D4D" stroke-width="6" stroke-miterlimit="10" d="M96.3,138.5c-3.2,0-6.4-0.3-9.5-0.7l-5.7,11
		c4.9,1,10,1.6,15.2,1.6c5.2,0,10.2-0.5,15.2-1.6l-5.7-11C102.7,138.3,99.5,138.5,96.3,138.5z"/>
	<path fill="none" stroke="#4D4D4D" stroke-width="6" stroke-miterlimit="10" d="M168.8,62h-4.3c-0.8-2.4-1.6-4.8-2.7-7.2
		c-0.8-1.7-1.6-3.4-2.5-5.1l3-2.9c2.2-2.1,2.2-5.6,0-7.7l-21.3-20.6c-2.2-2.1-5.8-2.1-8,0l-2.7,2.6c-2.1-1.1-4.2-2.1-6.4-3
		c-2.3-0.9-4.6-1.8-7-2.5v-3.9c0-3-2.5-5.5-5.6-5.5H81.3c-3.1,0-5.6,2.4-5.6,5.5v3.9c-2.4,0.7-4.7,1.5-7,2.5c-2.3,1-4.6,2-6.8,3.2
		l-2.9-2.8c-2.2-2.1-5.8-2.1-8,0L29.6,39.2c-2.2,2.1-2.2,5.6,0,7.7l3.4,3.3c-0.8,1.5-1.6,3.1-2.3,4.7c-1.1,2.6-2.1,5.2-2.9,7.8h-4.8
		c-3.1,0-5.6,2.4-5.6,5.5v29.1c0,3,2.5,5.5,5.6,5.5h5.4c0.6,1.9,1.4,3.8,2.2,5.7c0.8,1.9,1.8,3.8,2.8,5.6l-3.9,3.8
		c-2.2,2.1-2.2,5.6,0,7.7l18.6,18l9.7-18.6l18.9-18.4l-35.6,68.9c-1.7,3.6-0.1,8,3.6,9.6c1,0.5,2.1,0.7,3.2,0.7
		c2.8,0,5.5-1.6,6.8-4.2l37.9-73.2c1.2,0.2,2.4,0.2,3.6,0.2c1.2,0,2.4-0.1,3.6-0.2l37.9,73.2c1.3,2.7,4,4.2,6.8,4.2
		c1.1,0,2.1-0.2,3.2-0.7c3.8-1.7,5.4-6,3.6-9.6l-35.6-68.9l19,18.5l9.4,18.1l18.2-17.6c2.2-2.1,2.2-5.6,0-7.7l-3.5-3.4
		c1.1-1.9,2.1-3.9,3-6c0.9-2.1,1.7-4.2,2.4-6.4h4.6c3.1,0,5.6-2.4,5.6-5.5V67.4C174.5,64.4,171.9,62,168.8,62z M121.6,78.3
		c-0.8-3.9-2.6-7.5-5.1-10.6l24.3-23.6c8.6,9.6,13.6,21.5,14.4,34.2H121.6z M37.5,78.3c0.7-12.7,5.8-24.6,14.4-34.2l24.3,23.6
		c-2.5,3-4.3,6.6-5.1,10.6H37.5z M135.5,39L111,62.8c-3.2-2.1-6.9-3.6-10.9-4.2V24.7C113.3,25.5,125.6,30.5,135.5,39z M92.6,24.7
		v33.9c-4,0.6-7.7,2-10.9,4.2L57.2,39C67,30.5,79.4,25.5,92.6,24.7z M52.5,119.7c-8.9-9.5-14.1-21.4-15-34.1h33
		c0.4,4.5,2,8.6,4.6,12.1L52.5,119.7z M122.1,85.6h33c-0.9,12.7-6.1,24.6-15,34.1l-22.6-22C120,94.2,121.7,90.1,122.1,85.6z"/>
</g>
</svg>
