<?xml version="1.0" encoding="utf-8"?>
<!-- Generator: Adobe Illustrator 17.1.0, SVG Export Plug-In . SVG Version: 6.00 Build 0)  -->
<!DOCTYPE svg PUBLIC "-//W3C//DTD SVG 1.1//EN" "http://www.w3.org/Graphics/SVG/1.1/DTD/svg11.dtd">
<svg version="1.1" id="Layer_1" xmlns="http://www.w3.org/2000/svg" xmlns:xlink="http://www.w3.org/1999/xlink" x="0px" y="0px"
	 viewBox="0 0 192 192" enable-background="new 0 0 192 192" xml:space="preserve">
<path fill="none" stroke="#4D4D4D" stroke-width="6" stroke-miterlimit="10" d="M177.3,8.9H12.8c-1.9,0-3.5,1.7-3.5,3.7
	c0,2.1,1.6,3.7,3.5,3.7H28L39.3,55c0.6,2.1,3.4,2.1,4,0l11.3-38.6h9.2L75.2,55c0.6,2.1,3.4,2.1,4,0l11.3-38.6h8.9L110.9,55
	c0.6,2.1,3.4,2.1,4,0l11.3-38.6h9.2L146.8,55c0.6,2.1,3.4,2.1,4,0l11.3-38.6h15.2c1.9,0,3.5-1.7,3.5-3.7
	C180.9,10.6,179.2,8.9,177.3,8.9z"/>
<path fill="none" stroke="#4D4D4D" stroke-width="6" stroke-miterlimit="10" d="M177.3,72.9H12.8c-1.9,0-3.5,1.7-3.5,3.7
	c0,2.1,1.6,3.7,3.5,3.7H28l11.3,38.6c0.6,2.1,3.4,2.1,4,0l11.3-38.6h9.2l11.3,38.6c0.6,2.1,3.4,2.1,4,0l11.3-38.6h8.9l11.3,38.6
	c0.6,2.1,3.4,2.1,4,0l11.3-38.6h9.2l11.3,38.6c0.6,2.1,3.4,2.1,4,0l11.3-38.6h15.2c1.9,0,3.5-1.7,3.5-3.7
	C180.8,74.6,179.2,72.9,177.3,72.9z"/>
<path fill="none" stroke="#4D4D4D" stroke-width="6" stroke-miterlimit="10" d="M177.3,136.8H12.8c-1.9,0-3.5,1.7-3.5,3.7
	c0,2.1,1.6,3.7,3.5,3.7H28l11.3,38.6c0.6,2.1,3.4,2.1,4,0l11.3-38.6h9.2l11.3,38.6c0.6,2.1,3.4,2.1,4,0l11.3-38.6h8.9l11.3,38.6
	c0.6,2.1,3.4,2.1,4,0l11.3-38.6h9.2l11.3,38.6c0.6,2.1,3.4,2.1,4,0l11.3-38.6h15.2c1.9,0,3.5-1.7,3.5-3.7
	C180.9,138.5,179.2,136.8,177.3,136.8z"/>
</svg>
